<svg width="429" height="196" viewBox="0 0 429 196" fill="none" xmlns="http://www.w3.org/2000/svg">
<path d="M156.434 3.56305C143.968 4.85933 137.447 14.2173 135.009 23.3279C132.625 32.239 133.462 42.5437 136.44 50.7781C142.518 67.5789 151.625 76.9906 160.012 85.6587C160.552 86.2168 161.089 86.7718 161.622 87.3254C170.174 96.2092 178.483 105.417 185.06 123.595C190.247 137.93 190.921 150.108 188.636 159.001C186.412 167.655 181.466 173.197 174.551 175.699C166.273 178.694 156.54 178.936 148.294 175.792C140.345 172.761 133.444 166.497 130.177 155.44C126.932 144.456 127.233 134.554 131.224 127.311C134.999 120.459 143.208 113.972 160.426 111.949L158.343 94.2197C137.233 96.6998 122.93 105.373 115.589 118.696C108.464 131.629 109.046 146.917 113.058 160.498C117.96 177.09 128.975 187.531 141.934 192.472C154.596 197.299 168.764 196.777 180.625 192.485C193.85 187.7 202.446 176.982 205.925 163.443C209.343 150.143 207.88 134.197 201.847 117.521C194.036 95.9345 183.774 84.5968 174.482 74.945C174.025 74.4702 173.573 74.0014 173.125 73.5375C164.726 64.8355 157.981 57.8479 153.227 44.7054C151.341 39.4923 150.92 32.9284 152.254 27.9418C153.535 23.1548 155.708 21.586 158.281 21.3185C162.477 20.8822 164.63 21.784 165.851 22.655C167.216 23.6289 168.543 25.38 169.626 28.3915C171.93 34.7962 171.999 43.403 172.005 51.0986L189.856 51.0869L189.856 50.344C189.856 43.3546 189.856 31.8918 186.423 22.3493C184.576 17.214 181.492 11.8844 176.218 8.12225C170.799 4.25719 164.084 2.7676 156.434 3.56305Z" fill="#FFFFFF"/>
<path d="M268.755 191.948C281.196 190.591 287.841 181.366 290.387 172.221C292.869 163.304 292.095 152.997 289.115 144.762C283.055 128.008 273.863 118.661 265.426 110.081C264.882 109.528 264.34 108.977 263.803 108.427C255.201 99.6338 246.869 90.5374 240.345 72.508C235.202 58.2921 234.605 46.1977 236.976 37.3421C239.282 28.7239 244.349 23.0822 251.504 20.4935C259.989 17.4234 269.919 17.1221 278.285 20.2108C286.343 23.1855 293.237 29.366 296.444 40.2747C299.641 51.146 299.279 60.9818 295.182 68.235C291.276 75.1502 282.822 81.724 265.274 83.8694L267.44 101.589C288.764 98.9816 303.228 90.2879 310.725 77.0145C318.032 64.0789 317.56 48.8049 313.571 35.2389C308.69 18.6405 297.543 8.29167 284.468 3.46434C271.701 -1.24901 257.404 -0.625032 245.43 3.70722C232.126 8.52089 223.357 19.1825 219.731 32.7265C216.17 46.0332 217.545 61.9597 223.559 78.5814C231.342 100.093 241.689 111.349 251.042 120.911C251.5 121.378 251.953 121.84 252.401 122.297C260.859 130.921 267.618 137.812 272.329 150.834C274.187 155.971 274.571 162.471 273.189 167.434C271.871 172.168 269.63 173.895 266.821 174.201C262.494 174.673 260.285 173.768 259.058 172.912C257.703 171.966 256.395 170.264 255.332 167.307C253.057 160.984 253.043 152.446 253.091 144.762L235.24 144.65L235.235 145.401C235.186 152.36 235.107 163.82 238.534 173.348C240.384 178.492 243.496 183.818 248.838 187.548C254.307 191.367 261.068 192.785 268.755 191.948Z" fill="#FFFFFF"/>
<path d="M18.1534 180.767C18.0866 184.192 18.0943 187.424 18.163 190.38L0.316586 190.795C0.141911 183.277 0.328485 174.007 1.10567 164.146C2.68245 137.095 5.85586 102.912 11.1028 73.4887C14.2607 55.7798 18.2563 39.2817 23.3277 27.0168C25.8494 20.9179 28.8568 15.3148 32.5604 11.0966C36.2792 6.86101 41.5254 3.1436 48.2934 3.14613C56.6377 3.14924 62.4551 9.40312 65.9405 14.457C69.7921 20.0418 73.0025 27.3344 75.571 34.9143C80.7128 50.0885 83.9925 68.5704 83.9925 82.1197H66.1413C66.1413 70.8183 63.2846 54.279 58.6641 40.6432C56.3513 33.8181 53.774 28.2585 51.2452 24.5917C49.5692 22.1615 48.4761 21.3403 48.0647 21.0797C48.0261 21.0981 47.9821 21.1206 47.9324 21.1481C47.5456 21.3623 46.8741 21.8502 45.9749 22.8743C44.1153 24.9924 42.0031 28.5683 39.8243 33.8378C35.4944 44.3096 31.7648 59.3059 28.6767 76.6226C27.7575 81.7774 26.9028 87.0924 26.1101 92.4981C31.2056 88.3313 37.457 85.627 44.9422 85.627C56.1573 85.627 64.6855 91.6985 70.7587 99.6302C76.7143 107.408 80.8901 117.631 83.8744 128.124C89.8683 149.2 91.8017 174.1 91.8017 190.587L73.9505 190.588C73.9505 175.064 72.0904 151.946 66.7041 133.007C63.9983 123.493 60.5873 115.709 56.5852 110.483C52.7008 105.41 48.9006 103.478 44.9422 103.478C41.0178 103.478 37.3379 105.373 33.6227 110.377C29.7731 115.562 26.5514 123.311 24.0678 132.821C21.392 143.067 19.7769 154.54 18.9157 165.373C18.5986 170.831 18.3477 175.997 18.1592 180.768L18.1534 180.767Z" fill="#FFFFFF"/>
<path d="M410.847 15.1944C410.913 11.7699 410.906 8.5391 410.837 5.58307L428.683 5.16839C428.858 12.6871 428.671 21.9584 427.894 31.8207C426.317 58.8704 423.144 93.0498 417.897 122.47C414.739 140.179 410.744 156.677 405.672 168.941C403.151 175.04 400.143 180.643 396.44 184.861C392.721 189.097 387.474 192.814 380.707 192.811C372.362 192.808 366.545 186.555 363.06 181.501C359.208 175.916 355.998 168.624 353.429 161.044C348.287 145.87 345.008 127.389 345.008 113.84L362.859 113.84C362.859 125.141 365.715 141.679 370.336 155.315C372.649 162.14 375.226 167.699 377.755 171.366C379.431 173.796 380.524 174.617 380.935 174.878C380.974 174.859 381.018 174.837 381.068 174.809C381.454 174.595 382.126 174.107 383.025 173.083C384.885 170.965 386.997 167.389 389.176 162.12C393.506 151.649 397.235 136.653 400.323 119.336C401.242 114.182 402.097 108.868 402.89 103.463C397.794 107.63 391.543 110.334 384.058 110.334C372.843 110.334 364.315 104.263 358.241 96.3311C352.286 88.5532 348.11 78.3307 345.126 67.8378C339.132 46.7628 337.198 21.8631 337.198 5.37574L355.049 5.37572C355.05 20.8992 356.91 44.0158 362.296 62.9544C365.002 72.4682 368.413 80.2518 372.415 85.4783C376.299 90.5512 380.099 92.4827 384.058 92.4827C387.982 92.4827 391.662 90.5877 395.377 85.5839C399.227 80.3991 402.449 72.6501 404.932 63.1406C407.608 52.8963 409.223 41.4248 410.084 30.5938C410.401 25.1337 410.652 19.9662 410.841 15.1941L410.847 15.1944Z" fill="#FFFFFF"/>
</svg>
